<svg width="21" height="21" viewBox="0 0 21 21" fill="none" xmlns="http://www.w3.org/2000/svg">
<path d="M10.4364 0.791645C7.75135 0.791645 5.45181 1.74868 3.53775 3.66274C1.62369 5.5768 0.666656 7.87634 0.666656 10.5613C0.666656 13.2729 1.62369 15.5858 3.53775 17.4998C5.45181 19.4139 7.75135 20.3709 10.4364 20.3709C13.1479 20.3709 15.4608 19.4139 17.3748 17.4998C19.2889 15.5858 20.2459 13.2729 20.2459 10.5613C20.2459 7.87634 19.2889 5.5768 17.3748 3.66274C15.4608 1.74868 13.1479 0.791645 10.4364 0.791645ZM10.4364 19.4936C7.9906 19.4936 5.89045 18.6296 4.13589 16.9017C2.38134 15.1471 1.50406 13.0337 1.50406 10.5613C1.50406 8.11559 2.38134 6.01544 4.13589 4.26088C5.89045 2.50633 7.9906 1.62905 10.4364 1.62905C12.9087 1.62905 15.0088 2.50633 16.7368 4.26088C18.4914 6.01544 19.3686 8.11559 19.3686 10.5613C19.3686 13.0337 18.4914 15.1471 16.7368 16.9017C15.0088 18.6296 12.9087 19.4936 10.4364 19.4936ZM12.9884 16.1041H10.875V8.88653C10.875 8.59411 10.7288 8.4479 10.4364 8.4479H8.76155C8.46912 8.4479 8.32291 8.59411 8.32291 8.88653C8.32291 9.15238 8.46912 9.2853 8.76155 9.2853H10.0376V16.1041H7.88427C7.61843 16.1041 7.4855 16.2504 7.4855 16.5428C7.4855 16.8086 7.61843 16.9415 7.88427 16.9415H12.9884C13.2809 16.9415 13.4271 16.8086 13.4271 16.5428C13.4271 16.2504 13.2809 16.1041 12.9884 16.1041ZM9.0008 5.65655C9.16031 5.81606 9.35969 5.89581 9.59895 5.89581C9.83821 5.89581 10.0376 5.81606 10.1971 5.65655C10.3566 5.47046 10.4364 5.27108 10.4364 5.05841C10.4364 4.81915 10.3566 4.61977 10.1971 4.46027C10.0376 4.27418 9.83821 4.18113 9.59895 4.18113C9.35969 4.18113 9.16031 4.27418 9.0008 4.46027C8.8413 4.61977 8.76155 4.81915 8.76155 5.05841C8.76155 5.27108 8.8413 5.47046 9.0008 5.65655ZM9.59895 5.05841V5.45717V5.05841Z" fill="white"/>
</svg>
